<svg width="1063" height="371" viewBox="0 0 1063 371" fill="none" xmlns="http://www.w3.org/2000/svg">
<path d="M-378.966 364V0.363626H-160.926V39.4261H-334.932V162.295H-177.261V201.358H-334.932V364H-378.966ZM-49.2873 0.363626V364H-91.1907V0.363626H-49.2873ZM138.257 369.682C113.636 369.682 92.0331 363.822 73.4489 352.104C54.983 340.385 40.5417 323.991 30.125 302.92C19.8267 281.85 14.6776 257.229 14.6776 229.057C14.6776 200.648 19.8267 175.849 30.125 154.661C40.5417 133.472 54.983 117.018 73.4489 105.3C92.0331 93.581 113.636 87.7216 138.257 87.7216C162.878 87.7216 184.422 93.581 202.888 105.3C221.472 117.018 235.913 133.472 246.212 154.661C256.628 175.849 261.837 200.648 261.837 229.057C261.837 257.229 256.628 281.85 246.212 302.92C235.913 323.991 221.472 340.385 202.888 352.104C184.422 363.822 162.878 369.682 138.257 369.682ZM138.257 332.04C156.96 332.04 172.348 327.246 184.422 317.658C196.496 308.07 205.433 295.463 211.233 279.838C217.033 264.213 219.933 247.286 219.933 229.057C219.933 210.828 217.033 193.841 211.233 178.098C205.433 162.355 196.496 149.63 184.422 139.923C172.348 130.217 156.96 125.364 138.257 125.364C119.554 125.364 104.166 130.217 92.0923 139.923C80.0185 149.63 71.0814 162.355 65.2812 178.098C59.4811 193.841 56.581 210.828 56.581 229.057C56.581 247.286 59.4811 264.213 65.2812 279.838C71.0814 295.463 80.0185 308.07 92.0923 317.658C104.166 327.246 119.554 332.04 138.257 332.04ZM497.676 252.494V91.2727H539.58V364H497.676V317.835H494.836C488.444 331.685 478.5 343.463 465.006 353.169C451.512 362.757 434.466 367.551 413.87 367.551C396.824 367.551 381.673 363.822 368.415 356.365C355.158 348.789 344.741 337.426 337.165 322.274C329.589 307.004 325.801 287.769 325.801 264.568V91.2727H367.705V261.727C367.705 281.614 373.268 297.475 384.395 309.312C395.641 321.15 409.963 327.068 427.364 327.068C437.781 327.068 448.375 324.405 459.147 319.078C470.037 313.751 479.151 305.584 486.49 294.575C493.948 283.567 497.676 269.54 497.676 252.494ZM658.232 199.938V364H616.329V91.2727H656.812V133.886H660.363C666.755 120.037 676.461 108.91 689.482 100.506C702.503 91.983 719.312 87.7216 739.908 87.7216C758.374 87.7216 774.532 91.5095 788.381 99.0852C802.231 106.543 813.003 117.906 820.697 133.176C828.391 148.328 832.238 167.504 832.238 190.705V364H790.335V193.545C790.335 172.12 784.771 155.43 773.644 143.474C762.517 131.401 747.247 125.364 727.835 125.364C714.459 125.364 702.503 128.264 691.968 134.064C681.551 139.864 673.325 148.328 667.288 159.455C661.251 170.581 658.232 184.076 658.232 199.938ZM989.065 370.392C971.783 370.392 956.099 367.137 942.012 360.626C927.926 353.998 916.74 344.469 908.454 332.04C900.168 319.492 896.025 304.341 896.025 286.585C896.025 270.96 899.103 258.295 905.258 248.588C911.413 238.763 919.64 231.069 929.939 225.506C940.237 219.942 951.6 215.799 964.029 213.077C976.577 210.236 989.183 207.987 1001.85 206.33C1018.42 204.199 1031.86 202.601 1042.15 201.536C1052.57 200.352 1060.15 198.399 1064.88 195.676C1069.73 192.954 1072.16 188.219 1072.16 181.472V180.051C1072.16 162.532 1067.37 148.92 1057.78 139.213C1048.31 129.507 1033.93 124.653 1014.63 124.653C994.628 124.653 978.944 129.033 967.581 137.793C956.217 146.552 948.227 155.903 943.61 165.847L903.838 151.642C910.94 135.07 920.41 122.168 932.247 112.935C944.202 103.583 957.223 97.0729 971.309 93.4034C985.514 89.6155 999.482 87.7216 1013.21 87.7216C1021.97 87.7216 1032.03 88.7869 1043.4 90.9176C1054.88 92.9299 1065.95 97.1321 1076.6 103.524C1087.37 109.916 1096.31 119.563 1103.41 132.466C1110.51 145.368 1114.06 162.651 1114.06 184.312V364H1072.16V327.068H1070.03C1067.19 332.987 1062.46 339.32 1055.83 346.067C1049.2 352.814 1040.38 358.555 1029.37 363.29C1018.36 368.025 1004.93 370.392 989.065 370.392ZM995.457 332.75C1012.03 332.75 1026 329.495 1037.36 322.984C1048.84 316.474 1057.48 308.07 1063.28 297.771C1069.2 287.473 1072.16 276.642 1072.16 265.278V226.926C1070.39 229.057 1066.48 231.01 1060.44 232.786C1054.52 234.443 1047.66 235.922 1039.85 237.224C1032.15 238.408 1024.64 239.473 1017.3 240.42C1010.08 241.249 1004.22 241.959 999.718 242.551C988.828 243.972 978.648 246.28 969.179 249.476C959.827 252.554 952.252 257.229 946.451 263.503C940.77 269.658 937.929 278.062 937.929 288.716C937.929 303.276 943.315 314.284 954.086 321.741C964.976 329.08 978.767 332.75 995.457 332.75Z" fill="white" fill-opacity="0.65" style="fill:white;fill-opacity:0.65;"/>
</svg>
